<svg xmlns="http://www.w3.org/2000/svg" width="1333.333" height="1333.333" preserveAspectRatio="xMidYMid meet" version="1.0" viewBox="0 0 1000 1000"><metadata>Created by potrace 1.11, written by Peter Selinger 2001-2013</metadata><g fill="#000" stroke="none"><path d="M3727 8474 c-1 -1 -22 -5 -47 -9 -25 -3 -52 -8 -60 -10 -91 -25 -755 -25 -975 0 -27 3 -80 7 -117 10 l-66 5 4 -42 c3 -24 9 -52 14 -63 5 -11 14 -31 20 -45 14 -34 30 -57 67 -98 l32 -35 -57 -41 c-88 -63 -142 -113 -214 -197 -27 -31 -48 -61 -48 -68 0 -6 -4 -11 -9 -11 -22 0 -148 -292 -165 -383 -3 -12 -5 -22 -6 -22 -1 0 -3 -9 -5 -20 -1 -11 -6 -35 -9 -54 -28 -142 -28 -487 -1 -661 12 -70 24 -136 30 -163 6 -23 4 -27 -14 -27 -44 0 -91 -33 -113 -79 -28 -57 -29 -62 -30 -136 -2 -92 19 -224 51 -333 5 -18 11 -36 12 -40 1 -4 3 -11 4 -17 7 -23 50 -143 64 -175 8 -19 15 -37 16 -40 0 -3 16 -33 34 -67 37 -70 94 -131 128 -139 17 -5 23 -14 24 -35 1 -28 4 -46 8 -51 2 -2 4 -14 7 -28 2 -14 11 -46 19 -71 9 -25 17 -55 19 -66 3 -12 9 -29 14 -39 20 -37 72 -155 72 -162 0 -5 6 -14 13 -21 6 -6 12 -15 12 -19 1 -4 5 -16 11 -27 7 -13 10 -131 9 -319 l-1 -298 111 -112 c103 -104 173 -170 256 -241 82 -71 184 -160 189 -165 3 -3 43 -37 90 -75 47 -39 94 -78 105 -88 11 -10 41 -35 68 -55 26 -20 47 -40 47 -44 0 -4 5 -8 10 -8 6 0 23 -11 38 -24 15 -13 38 -33 51 -44 37 -29 23 -50 -31 -47 -24 1 -47 -1 -53 -4 -5 -3 -18 -7 -28 -8 -26 -4 -106 -61 -145 -103 -39 -41 -112 -145 -112 -159 0 -5 -4 -11 -9 -13 -10 -4 -81 -147 -81 -165 0 -7 -4 -13 -8 -13 -5 0 -9 -6 -10 -12 -2 -35 -59 -163 -74 -166 -9 -2 -25 12 -39 35 -13 21 -27 40 -31 41 -4 2 -8 7 -8 11 0 5 -23 48 -51 97 -79 137 -238 452 -231 458 3 3 0 6 -6 6 -6 0 -14 9 -17 20 -4 11 -33 76 -64 143 -32 67 -77 165 -101 217 -24 52 -57 127 -75 165 -18 39 -38 87 -45 108 -8 20 -17 37 -21 37 -6 0 -64 -30 -148 -77 -116 -64 -276 -157 -281 -162 -3 -3 -18 -13 -35 -21 -16 -8 -34 -18 -40 -23 -20 -15 -270 -170 -292 -181 -13 -6 -23 -14 -23 -18 0 -5 -6 -8 -14 -8 -8 0 -16 -3 -18 -8 -1 -4 -34 -27 -73 -52 -38 -25 -71 -48 -73 -52 -2 -5 -10 -8 -18 -8 -8 0 -14 -4 -14 -10 0 -5 -7 -10 -15 -10 -8 0 -15 -4 -15 -8 0 -5 -12 -15 -27 -23 -16 -8 -30 -16 -33 -20 -3 -3 -36 -27 -75 -54 -74 -51 -177 -126 -185 -135 -3 -3 -30 -23 -60 -45 -166 -118 -322 -251 -384 -326 -21 -25 -96 -162 -100 -182 -2 -6 -8 -30 -14 -52 -6 -22 -14 -58 -18 -80 -5 -31 -9 -889 -5 -1006 l1 -26 3333 1 3332 1 3 485 c2 323 -1 507 -9 552 -6 37 -11 71 -11 75 -2 19 -69 156 -96 195 -46 65 -87 106 -223 214 -229 185 -709 530 -751 542 -10 2 -18 8 -18 13 0 5 -6 9 -14 9 -8 0 -16 3 -18 8 -3 8 -96 72 -104 72 -3 0 -24 12 -47 28 -50 32 -62 39 -146 89 -36 21 -76 45 -90 53 -14 9 -48 29 -76 44 -27 16 -58 36 -67 44 -10 8 -18 12 -18 8 0 -4 -13 2 -29 13 -16 12 -34 21 -40 21 -6 0 -11 3 -11 8 0 4 -15 13 -32 21 -18 8 -41 21 -50 29 -10 8 -18 12 -18 8 0 -3 -18 6 -40 21 -49 31 -55 27 -90 -57 -12 -30 -45 -102 -71 -159 -27 -57 -49 -105 -49 -107 0 -5 -110 -236 -196 -409 -46 -93 -83 -174 -83 -179 0 -5 -3 -12 -8 -15 -5 -3 -32 -49 -60 -101 -28 -52 -59 -109 -69 -127 -10 -17 -36 -61 -57 -97 -21 -36 -44 -66 -51 -66 -17 0 -35 21 -39 46 -2 10 -8 28 -14 39 -6 11 -11 22 -11 25 -1 12 -17 50 -53 128 -22 46 -39 88 -39 93 0 5 -4 9 -10 9 -5 0 -10 6 -10 14 0 7 -7 19 -15 26 -9 7 -13 15 -11 17 10 10 -126 173 -144 173 -5 0 -10 4 -10 9 0 19 -110 63 -163 66 -28 2 -55 4 -59 4 -20 3 -1 25 70 83 42 34 82 67 88 73 7 5 31 26 55 45 135 109 345 290 498 429 46 42 126 118 178 170 86 88 93 98 94 135 0 23 1 158 1 301 l0 260 33 70 c35 73 64 142 64 150 0 3 8 19 16 35 8 16 15 33 16 37 0 5 8 35 18 68 10 33 24 85 30 117 10 47 16 57 37 62 41 11 99 79 142 168 37 76 51 110 52 123 0 3 7 19 15 35 9 17 13 30 11 30 -3 0 1 19 10 42 20 59 63 240 71 301 25 209 -15 308 -132 324 -16 3 -31 6 -33 8 -2 2 3 36 12 76 8 41 17 93 21 116 3 23 8 57 11 75 29 205 24 478 -13 633 -4 17 -7 32 -8 35 0 3 -11 34 -25 70 -59 159 -163 281 -293 345 -40 20 -80 37 -88 39 -8 1 -35 6 -61 11 -37 5 -48 12 -48 26 0 10 -4 20 -9 23 -5 3 -12 18 -16 33 -7 29 -55 111 -90 152 -34 40 -113 113 -153 140 -20 14 -38 29 -40 34 -2 4 -8 7 -14 7 -5 0 -24 10 -41 22 -18 13 -33 22 -35 20 -1 -1 -15 4 -30 12 -41 21 -159 55 -211 62 -54 6 -160 12 -164 8z" transform="translate(0.000000,1000.000000) scale(0.100000,-0.100000)"/><path d="M7056 8442 c-2 -1 -25 -4 -52 -6 -191 -17 -398 -78 -550 -162 -104 -58 -81 -43 -189 -123 -125 -93 -224 -197 -316 -336 -32 -49 -64 -96 -70 -102 -5 -7 -7 -13 -3 -13 4 0 0 -8 -9 -17 -8 -10 -16 -22 -17 -28 -1 -5 -10 -29 -20 -52 -10 -22 -21 -52 -25 -65 -4 -12 -11 -27 -15 -33 -6 -9 -11 -25 -26 -80 -18 -69 -37 -157 -40 -185 -2 -19 -6 -53 -9 -75 -7 -57 -7 -231 -1 -285 11 -82 16 -116 22 -140 3 -14 9 -41 13 -60 11 -48 55 -174 82 -235 12 -27 21 -52 20 -54 -2 -2 1 -7 6 -10 4 -3 19 -26 32 -51 22 -41 92 -148 123 -186 21 -27 211 -218 238 -240 59 -47 241 -153 325 -189 50 -21 95 -41 100 -45 6 -5 10 -132 9 -347 -1 -382 1 -392 67 -393 22 0 90 63 364 337 l337 337 547 1 c300 1 569 6 596 10 28 4 59 8 70 9 11 1 26 5 33 9 6 5 12 6 12 4 0 -4 96 21 185 47 60 18 234 104 299 148 124 84 242 190 319 288 28 36 54 67 57 70 4 3 24 34 46 70 21 36 42 67 46 70 3 3 10 18 13 33 4 15 11 27 16 27 5 0 9 6 9 13 0 6 7 25 15 41 20 39 75 203 75 225 0 9 5 22 12 29 7 7 9 12 6 12 -3 0 -2 17 3 38 30 132 30 396 0 552 -39 197 -126 397 -238 550 -59 80 -77 101 -133 159 -120 124 -256 222 -401 289 -86 40 -140 63 -149 64 -3 1 -29 9 -59 19 -30 11 -56 17 -59 14 -3 -2 -12 0 -22 5 -9 5 -32 12 -51 15 -19 3 -42 8 -52 11 -10 3 -57 7 -105 9 -48 3 -89 5 -92 6 -10 2 -1392 4 -1394 1z m1569 -771 c6 -1 10 -55 10 -141 l0 -140 -50 0 c-150 -1 -1634 -1 -1652 -1 -23 1 -23 3 -23 140 0 123 2 140 17 143 14 3 1670 2 1698 -1z m-1565 -513 c36 5 152 2 161 -3 5 -4 9 -2 9 3 0 6 17 8 38 5 20 -2 46 -4 57 -3 28 2 46 2 75 1 14 -1 55 -2 93 -2 37 0 75 0 85 0 9 1 56 1 105 1 48 1 92 -2 97 -5 6 -3 10 -1 10 5 0 6 10 8 27 4 15 -4 34 -7 43 -6 42 5 232 2 240 -3 6 -3 10 -1 10 5 0 6 10 8 27 4 15 -4 34 -7 43 -6 42 5 232 2 240 -3 6 -3 10 -1 10 5 0 6 10 8 27 4 15 -4 32 -7 38 -6 53 7 135 5 136 -3 7 -61 2 -275 -6 -278 -5 -2 -392 -3 -860 -3 l-850 1 -3 144 -3 143 41 -4 c22 -2 40 0 40 4 0 5 12 5 27 2 15 -4 34 -7 43 -6z m891 -527 c7 -40 2 -271 -6 -273 -5 -1 -241 -2 -522 -3 l-513 -2 0 137 c0 75 2 139 5 142 8 8 1035 7 1036 -1z" transform="translate(0.000000,1000.000000) scale(0.100000,-0.100000)"/></g></svg>