<?xml version="1.0" encoding="UTF-8"?>
<svg width="410" height="90" version="1.1" viewBox="0 0 410 90" xml:space="preserve" xmlns="http://www.w3.org/2000/svg" xmlns:cc="http://creativecommons.org/ns#" xmlns:dc="http://purl.org/dc/elements/1.1/" xmlns:rdf="http://www.w3.org/1999/02/22-rdf-syntax-ns#"><style/><metadata><rdf:RDF><cc:Work rdf:about=""><dc:format>image/svg+xml</dc:format><dc:type rdf:resource="http://purl.org/dc/dcmitype/StillImage"/><dc:title/></cc:Work></rdf:RDF></metadata>
<desc>Created with Fabric.js 3.6.3</desc>

<g transform="translate(288.81 37.017)"><path d="m-128.78-4.35c0-4.81-3.66-8.47-11.46-8.47h-11.63c-0.67 0-1.16 0.5-1.16 1.16v20.93c0 0.67 0.49 1.17 1.16 1.17h4.98c0.67 0 1.17-0.5 1.17-1.17v-5.15h5.48c7.8 0 11.46-3.65 11.46-8.47zm-16.94 3.16v-6.31h5.48c2.49 0 3.82 1.33 3.82 3.15 0 1.83-1.33 3.16-3.82 3.16z"/><path d="m-113.33 11.1c8.13 0 12.29-3.99 12.29-10.33v-12.43c0-0.66-0.5-1.16-1.17-1.16h-4.98c-0.66 0-1.16 0.5-1.16 1.16v12.46c0 2.99-1.83 4.82-4.98 4.82-3.16 0-4.99-1.83-4.99-4.82v-12.46c0-0.66-0.5-1.16-1.16-1.16h-4.98c-0.67 0-1.17 0.5-1.17 1.16v12.46c0 6.31 3.99 10.3 12.3 10.3z"/><path d="m-73.3-6.34c0-3.49-2.99-6.48-9.8-6.48h-11.96c-0.67 0-1.17 0.5-1.17 1.16v20.93c0 0.67 0.5 1.17 1.17 1.17h13.29c6.97 0 10.13-3.16 10.13-6.81 0-4.32-4.99-5.32-4.99-5.32v-0.33s3.33-1 3.33-4.32zm-8.47 7.47c1.66 0 2.49 0.83 2.49 2 0 1.16-0.83 1.99-2.49 1.99h-7.15v-3.99zm-1.33-8.63c1.52 0 2.16 0.66 2.16 1.66 0 0.99-0.67 1.66-2.16 1.66h-5.82v-3.32z"/><path d="m-47.06 5.95c0-0.66-0.5-1.16-1.16-1.16h-12.46v-16.45c0-0.66-0.5-1.16-1.16-1.16h-4.98c-0.67 0-1.17 0.5-1.17 1.16v20.93c0 0.67 0.5 1.17 1.17 1.17h18.6c0.66 0 1.16-0.5 1.16-1.17z"/><path d="m-29.45-11.66c0-0.66-0.5-1.16-1.16-1.16h-13.62c-0.67 0-1.17 0.5-1.17 1.16v3.33c0 0.66 0.5 1.16 1.17 1.16h3.15v11.96h-3.15c-0.67 0-1.17 0.5-1.17 1.16v3.32c0 0.67 0.5 1.17 1.17 1.17h13.62c0.66 0 1.16-0.5 1.16-1.17v-3.32c0-0.66-0.5-1.16-1.16-1.16h-3.16v-11.96h3.16c0.66 0 1.16-0.5 1.16-1.16z"/><path d="m-13.17-13.48c-8.81 0-13.62 4.81-13.62 12.29 0 7.47 4.81 12.29 13.62 12.29 7.97 0 12.29-4.32 12.29-8.3 0-0.84-0.5-1.33-1.33-1.33h-4.15c-1 0-1.53 0.49-2 1.33-0.83 1.49-2.16 2.82-4.81 2.82-3.66 0-5.98-2.33-5.98-6.81 0-4.49 2.32-6.81 5.98-6.81 2.49 0 3.65 1.16 4.48 2.49 0.5 0.83 1 1.33 2 1.33h4.15c0.83 0 1.33-0.5 1.33-1.33 0-3.82-4.16-7.97-11.96-7.97z"/><path d="m34.67-11.66c0-0.66-0.5-1.16-1.17-1.16h-21.26c-0.66 0-1.16 0.5-1.16 1.16v3.33c0 0.66 0.5 1.16 1.16 1.16h6.98v16.44c0 0.67 0.5 1.17 1.16 1.17h4.98c0.67 0 1.17-0.5 1.17-1.17v-16.44h6.97c0.67 0 1.17-0.5 1.17-1.16z"/><path d="m55.69 9.27c0.27 0.67 0.83 1.17 1.5 1.17h5.65c0.66 0 1.13-0.5 0.83-1.17l-9.3-20.96c-0.3-0.66-0.84-1.13-1.5-1.13h-6.81c-0.66 0-1.2 0.5-1.5 1.16l-9.3 20.93c-0.3 0.67 0.17 1.17 0.83 1.17h5.32c0.66 0 1.23-0.5 1.49-1.17l1.17-2.99h10.46zm-6.47-15.11h0.33l2.66 6.64h-5.82z"/><path d="m87.19 5.95c0-0.66-0.5-1.16-1.17-1.16h-12.45v-16.45c0-0.66-0.5-1.16-1.17-1.16h-4.98c-0.66 0-1.16 0.5-1.16 1.16v20.93c0 0.67 0.5 1.17 1.16 1.17h18.6c0.67 0 1.17-0.5 1.17-1.17z"/><path d="m107.12-1.86s2.19-0.66 3.99-3.98l3.15-5.82c0.27-0.49 0-1.16-0.83-1.16h-5.15c-1.33 0-1.79 0.5-2.16 1.16l-3.15 5.82c-0.53 0.99-1.17 1.66-2.99 1.66h-2.49v-7.48c0-0.66-0.5-1.16-1.17-1.16h-4.98c-0.66 0-1.16 0.5-1.16 1.16v20.93c0 0.67 0.5 1.17 1.16 1.17h4.98c0.67 0 1.17-0.5 1.17-1.17v-7.8h2.99c1.82 0 2.45 0.66 2.99 1.66l3.32 6.14c0.36 0.67 0.83 1.17 2.16 1.17h5.15c0.83 0 1.09-0.67 0.83-1.17l-3.33-6.14c-2.15-3.99-4.48-4.65-4.48-4.65z"/></g>
<g transform="translate(201.07 69.653)"><path d="m-62.36-2.95v12.06q0 1.21-0.43 2.07-0.44 0.86-1.3 0.86-1.05 0-2.11-0.91v-0.68q0.67 0.59 1.28 0.59 0.87 0 0.87-1.93v-12.06zm-0.09-4.14q0.31 0.31 0.31 0.75 0 0.43-0.31 0.75-0.32 0.31-0.75 0.31-0.44 0-0.75-0.31-0.32-0.32-0.32-0.75 0-0.44 0.32-0.75 0.31-0.32 0.75-0.32 0.43 0 0.75 0.32z"/><path d="m-47.37-2.95h0.96l-3.17 9.78h-1.37l-2.37-7.61-2.45 7.61h-1.37l-3.04-9.78h1.58l2.48 7.93 2.56-7.93h1.18l2.45 7.93z"/><path d="m-36.59 0.74v6.09h-1.69v-0.98q-1.5 1.19-3 1.19-1.67 0-2.7-0.84-1.02-0.85-1.02-2.39 0-1.59 1.11-2.43 1.11-0.83 2.93-0.83 1.33 0 2.68 0.58v-0.39q0-1.17-0.59-2.04t-1.54-0.87q-1.59 0-3.2 0.89v-0.67q1.94-1.22 3.87-1.22 1.37 0 2.26 1.16 0.89 1.17 0.89 2.75zm-1.69 4.2v-2.89q-1.18-0.59-2.39-0.59-1 0-1.71 0.68-0.7 0.69-0.7 1.67 0 1.06 0.65 1.69t1.76 0.63q1.19 0 2.39-1.19z"/><path d="m-25.73-1.77q0.92 1.4 0.92 3.71 0 2.3-1.03 3.7-1.04 1.4-3.01 1.4-1.33 0-2.68-0.58v5.36h-1.69v-14.77h1.69v0.98q1.5-1.2 3-1.2 1.89 0 2.8 1.4zm-0.99 3.71q0-1.96-0.53-3.08-0.52-1.12-1.89-1.12-1.19 0-2.39 1.2v6.6q1.18 0.59 2.39 0.59 1.24 0 1.83-1.23t0.59-2.96z"/><path d="m-14.49-1.77q0.91 1.4 0.91 3.71 0 2.3-1.03 3.7t-3.01 1.4q-1.33 0-2.67-0.58v5.36h-1.7v-14.77h1.7v0.98q1.5-1.2 3-1.2 1.89 0 2.8 1.4zm-1 3.71q0-1.96-0.52-3.08t-1.89-1.12q-1.2 0-2.39 1.2v6.6q1.17 0.59 2.39 0.59 1.24 0 1.82-1.23 0.59-1.23 0.59-2.96z"/><path d="m-9.57 5.01q0.31 0.32 0.31 0.75 0 0.44-0.31 0.75-0.32 0.32-0.75 0.32-0.44 0-0.75-0.32-0.32-0.31-0.32-0.75 0-0.43 0.32-0.75 0.31-0.31 0.75-0.31 0.43 0 0.75 0.31z"/><path d="m-2.28 5.41v0.65q-1.09 0.98-2.24 0.98-0.89 0-1.37-0.87t-0.48-2.06v-7.06h1.7v7.06q0 1.93 0.95 1.93 0.7 0 1.44-0.63zm-2.49-12.5q0.32 0.31 0.32 0.75 0 0.43-0.32 0.75-0.31 0.31-0.75 0.31-0.43 0-0.75-0.31-0.31-0.32-0.31-0.75 0-0.44 0.31-0.75 0.32-0.32 0.75-0.32 0.44 0 0.75 0.32z"/><path d="m7.76-0.24v7.07h-1.7v-7.07q0-0.78-0.52-1.35-0.52-0.58-1.28-0.58-1.35 0-2.67 1.33v7.67h-1.7v-9.78h1.7v1.43q1.69-1.65 3.39-1.65 1.17 0 1.97 0.87 0.81 0.87 0.81 2.06z"/><path d="m15.47-7.64v0.67q-0.7-0.63-1.46-0.63-0.97 0-0.97 1.93v2.72h1.52v0.91h-1.52v8.87h-1.7v-8.87h-1.52v-0.91h1.52v-2.72q0-1.19 0.48-2.06t1.37-0.87q1.13 0 2.28 0.96z"/><path d="m23.52-1.87q1.07 1.31 1.07 3.81t-1.07 3.8q-1.08 1.3-3.12 1.3-2.06 0-3.14-1.3-1.07-1.3-1.07-3.8t1.07-3.81q1.08-1.3 3.14-1.3 2.04 0 3.12 1.3zm-1.42 6.92q0.58-1.07 0.58-3.11 0-2.05-0.58-3.12-0.59-1.08-1.7-1.08-1.13 0-1.72 1.08-0.58 1.07-0.58 3.12 0 2.04 0.58 3.11 0.59 1.08 1.72 1.08 1.11 0 1.7-1.08z"/></g>
<g transform="matrix(1.232 0 0 1.232 62.965 44.645)">
<path fill="#38B2AC" transform="translate(-50 -50.036)" d="m30.8 85h-29.5v-9.5c0-2 0.9-3.9 2.4-5.2 6.7-5.5 13.8-9.6 17.5-11.6 0.4 0.9 4.3 9.9 6.8 13.6 0.1 0.1 0.3 0.1 0.4-0.1 0.5-1.5 2.4-6.8 5.4-6.4 0.2 0 0.3-0.2 0.2-0.3-2.2-1.8-7.9-6.4-10-8.9v-6.1c-1-1.8-1.7-3.6-1.9-5.3-0.7-0.1-1.7-1.1-2.8-4.8-1.3-4.8-0.1-5.7 1.1-5.7-0.6-2.7-2.3-12.4 4.9-16.7 0 0-1.5-1.2-1.4-2.9 0 0 8.2 0.9 12.1 0.1 4-0.8 8.2 2.3 8.9 5.3 0 0 8 0 4.9 14.3 1.3-0.1 2.6 0.8 1.2 5.7-1 3.7-2 4.7-2.8 4.8-0.3 1.7-0.9 3.5-1.9 5.3v6.1c-2.2 2.6-7.8 7.1-10 8.9-0.2 0.1 0 0.4 0.2 0.3 3-0.4 4.9 4.9 5.4 6.4 0.1 0.2 0.3 0.2 0.4 0.1 2.5-3.8 6.4-12.7 6.8-13.6 3.7 2 10.8 6 17.5 11.6 1.6 1.3 2.4 3.2 2.4 5.2v9.4h-29.3zm35.9-34.6v-6.9c-5.7-1.9-9.9-7.3-9.9-13.7 0-8 6.4-14.4 14.4-14.4h13.1c8 0 14.4 6.4 14.4 14.4s-6.4 14.4-14.4 14.4h-9.8l-6.6 6.6c-0.5 0.5-1.2 0.2-1.2-0.4zm2.3-24.3h17.5v-2.9h-17.5zm0 5.2h17.5v-2.9h-17.5zm0 5.3h10.6v-2.9h-10.6z" stroke-linecap="round"/>
</g>
</svg>
